<svg width="254" height="40" viewBox="0 0 254 40" fill="none" xmlns="http://www.w3.org/2000/svg">
<path d="M229.949 26.7097L234.95 23.6934L239.951 26.7494L238.641 21.0344L243.046 17.2244L237.252 16.7084L234.95 11.3109L232.648 16.6688L226.854 17.1847L231.259 21.0344L229.949 26.7097ZM227.528 30.0403L229.497 21.6059L222.952 15.9353L231.573 15.1892L234.95 7.23424L238.327 15.1876L246.947 15.9337L240.403 21.6043L242.372 30.0387L234.95 25.5619L227.528 30.0403Z" fill="#FFCF25"/>
<g clip-path="url(#clip0_5001_8839)">
<g clip-path="url(#clip1_5001_8839)">
<g clip-path="url(#clip2_5001_8839)">
<g clip-path="url(#clip3_5001_8839)">
<path d="M172.852 27.5685L174.82 19.1341L168.275 13.4636L176.897 12.7175L180.273 4.7625L183.65 12.7159L192.27 13.462L185.726 19.1326L187.695 27.5669L180.273 23.0902L172.852 27.5685Z" fill="#FFCF25"/>
</g>
</g>
</g>
</g>
<g clip-path="url(#clip4_5001_8839)">
<g clip-path="url(#clip5_5001_8839)">
<g clip-path="url(#clip6_5001_8839)">
<path d="M118.877 27.5685L120.845 19.1341L114.3 13.4636L122.922 12.7175L126.298 4.7625L129.675 12.7159L138.295 13.462L131.751 19.1326L133.72 27.5669L126.298 23.0902L118.877 27.5685Z" fill="#FFCF25"/>
</g>
</g>
</g>
<g clip-path="url(#clip7_5001_8839)">
<g clip-path="url(#clip8_5001_8839)">
<path d="M64.9018 27.5685L66.8703 19.1341L60.325 13.4636L68.9467 12.7175L72.3233 4.7625L75.6999 12.7159L84.3201 13.462L77.7764 19.1326L79.7449 27.5669L72.3233 23.0902L64.9018 27.5685Z" fill="#FFCF25"/>
</g>
</g>
<g clip-path="url(#clip9_5001_8839)">
<path d="M12.5143 29.156L14.4828 20.7216L7.9375 15.0511L16.5592 14.305L19.9358 6.35L23.3124 14.3034L31.9326 15.0495L25.3889 20.7201L27.3574 29.1544L19.9358 24.6777L12.5143 29.156Z" fill="#FFCF25"/>
</g>
<defs>
<clipPath id="clip0_5001_8839">
<rect width="38.1" height="38.1" fill="white" transform="translate(161.925)"/>
</clipPath>
<clipPath id="clip1_5001_8839">
<rect width="38.1" height="38.1" fill="white" transform="translate(161.925)"/>
</clipPath>
<clipPath id="clip2_5001_8839">
<rect width="38.1" height="38.1" fill="white" transform="translate(161.925)"/>
</clipPath>
<clipPath id="clip3_5001_8839">
<rect width="38.1" height="38.1" fill="white" transform="translate(168.275)"/>
</clipPath>
<clipPath id="clip4_5001_8839">
<rect width="38.1" height="38.1" fill="white" transform="translate(107.95)"/>
</clipPath>
<clipPath id="clip5_5001_8839">
<rect width="38.1" height="38.1" fill="white" transform="translate(107.95)"/>
</clipPath>
<clipPath id="clip6_5001_8839">
<rect width="38.1" height="38.1" fill="white" transform="translate(114.3)"/>
</clipPath>
<clipPath id="clip7_5001_8839">
<rect width="38.1" height="38.1" fill="white" transform="translate(53.975)"/>
</clipPath>
<clipPath id="clip8_5001_8839">
<rect width="38.1" height="38.1" fill="white" transform="translate(60.325)"/>
</clipPath>
<clipPath id="clip9_5001_8839">
<rect width="38.1" height="38.1" fill="white" transform="translate(7.9375 1.5875)"/>
</clipPath>
</defs>
</svg>
