<svg width="22" height="28" viewBox="0 0 22 28" fill="none" xmlns="http://www.w3.org/2000/svg">
<path d="M11 1C5.47917 1 1 4.70713 1 9.27295C1 14.5266 7.66667 22.8521 10.1146 25.7277C10.2162 25.849 10.3494 25.9478 10.5032 26.0159C10.6571 26.084 10.8273 26.1195 11 26.1195C11.1727 26.1195 11.3429 26.084 11.4968 26.0159C11.6506 25.9478 11.7838 25.849 11.8854 25.7277C14.3333 22.8533 21 14.5308 21 9.27295C21 4.70713 16.5208 1 11 1Z" stroke="#EDB5B5" stroke-width="2" stroke-linecap="round" stroke-linejoin="round"/>
<path d="M10.9996 12.594C12.8405 12.594 14.3329 11.2963 14.3329 9.69548C14.3329 8.09466 12.8405 6.79693 10.9996 6.79693C9.15863 6.79693 7.66624 8.09466 7.66624 9.69548C7.66624 11.2963 9.15863 12.594 10.9996 12.594Z" stroke="#EDB5B5" stroke-width="2" stroke-linecap="round" stroke-linejoin="round"/>
</svg>
