<svg width="23" height="20" viewBox="0 0 23 20" fill="none" xmlns="http://www.w3.org/2000/svg">
<path d="M16.369 0C14.273 0 12.482 1.55447 11.498 2.62616C10.514 1.55447 8.727 0 6.632 0C3.021 0 0.5 2.61887 0.5 6.3677C0.5 10.4984 3.631 13.1682 6.66 15.7507C8.09 16.9712 9.57 18.2322 10.705 19.6306C10.896 19.8647 11.176 20 11.47 20H11.528C11.823 20 12.102 19.8637 12.292 19.6306C13.429 18.2322 14.908 16.9701 16.339 15.7507C19.367 13.1693 22.5 10.4994 22.5 6.3677C22.5 2.61887 19.979 0 16.369 0Z" fill="white"/>
</svg>
