<svg width="35" height="36" viewBox="0 0 35 36" fill="none" xmlns="http://www.w3.org/2000/svg">
<circle cx="17.5" cy="18" r="17.5" fill="#EDE400"/>
<circle cx="12" cy="13.5" r="3" fill="#F8F8F8"/>
<circle cx="12" cy="13.5" r="1" fill="black"/>
<circle cx="23" cy="13.5" r="3" fill="#F8F8F8"/>
<path d="M24.8993 22.5C25.5072 22.5 26.0102 22.9971 25.8955 23.5941C25.7913 24.1368 25.6095 24.6688 25.353 25.1788C24.9258 26.0281 24.2997 26.7997 23.5104 27.4497C22.7211 28.0998 21.7841 28.6154 20.7528 28.9672C19.7215 29.3189 18.6162 29.5 17.5 29.5C16.3838 29.5 15.2785 29.3189 14.2472 28.9672C13.2159 28.6154 12.2789 28.0998 11.4896 27.4497C10.7003 26.7997 10.0742 26.0281 9.64702 25.1788C9.3905 24.6688 9.20874 24.1368 9.10446 23.5941C8.98975 22.9971 9.49279 22.5 10.1007 22.5V22.5C10.7086 22.5 11.1883 23.0005 11.3417 23.5887C11.4214 23.8946 11.5347 24.1946 11.6808 24.485C11.9974 25.1144 12.4613 25.6862 13.0462 26.1678C13.6311 26.6495 14.3254 27.0316 15.0896 27.2923C15.8538 27.5529 16.6729 27.6871 17.5 27.6871C18.3271 27.6871 19.1462 27.5529 19.9104 27.2923C20.6746 27.0316 21.3689 26.6495 21.9538 26.1678C22.5387 25.6862 23.0026 25.1144 23.3192 24.485C23.4653 24.1946 23.5786 23.8946 23.6583 23.5887C23.8117 23.0005 24.2914 22.5 24.8993 22.5V22.5Z" fill="#FF2525"/>
<circle cx="23" cy="13.5" r="1" fill="black"/>
</svg>
