<svg width="25" height="24" viewBox="0 0 25 24" fill="none" xmlns="http://www.w3.org/2000/svg">
<path d="M13.2831 0.00660013C14.58 0.0979715 15.7671 0.344434 16.5923 1.15596C17.4344 1.98311 17.7022 3.19498 17.7022 4.69179C17.7022 5.21116 17.6334 5.83994 17.561 6.42063C17.5297 6.66108 17.4995 6.89191 17.4694 7.10832L17.4018 7.62409H19.8749C20.7822 7.62409 21.6194 7.75393 22.3312 8.1098C23.0695 8.47769 23.6124 9.05597 23.9659 9.83022C24.6306 11.2898 24.6197 13.4466 24.2349 16.3152L24.1734 16.7841C24.0117 17.9983 23.8742 19.0347 23.6956 19.8859C23.4954 20.8417 23.2203 21.6845 22.7112 22.3505C21.6375 23.7547 19.8219 24 17.1822 24C14.3701 24 12.2601 23.4975 10.4939 23.0093L9.76764 22.805C8.53348 22.4563 7.53337 22.1726 6.5224 22.1004C6.47145 22.6206 6.22802 23.1033 5.83953 23.4545C5.45105 23.8056 4.94531 24.0001 4.42083 24H2.61122C2.05129 24 1.51429 23.7783 1.11836 23.3838C0.722431 22.9892 0.5 22.4541 0.5 21.8961V9.27238C0.5 8.111 1.44582 7.16843 2.61122 7.16843H4.42083C4.95631 7.16846 5.47177 7.37126 5.86285 7.73577C6.25394 8.10028 6.49142 8.59927 6.52722 9.13171C6.74413 9.1102 6.9567 9.05714 7.15817 8.97422C8.31753 8.47528 10.5048 7.12996 10.5048 3.92475V2.65877C10.5048 1.19202 11.7136 -0.104007 13.2831 0.00660013ZM6.53205 20.2946C7.80963 20.3716 9.04017 20.7214 10.2936 21.0785L10.9789 21.2709C12.6751 21.7398 14.6053 22.1966 17.1822 22.1966C19.9292 22.1966 20.8063 21.8672 21.272 21.2577C21.5325 20.9174 21.74 20.3944 21.9234 19.5168C22.0875 18.7353 22.2154 17.7735 22.3806 16.5388L22.441 16.0771C22.827 13.1917 22.7462 11.5146 22.3179 10.5768C22.1249 10.1536 21.8655 9.89394 21.5217 9.72202C21.1537 9.53808 20.6289 9.42747 19.8749 9.42747H17.0157C16.1942 9.42747 15.4559 8.74218 15.5548 7.83087C15.5861 7.53873 15.6332 7.18526 15.6815 6.82819L15.7659 6.19461C15.8383 5.61512 15.8926 5.08733 15.8926 4.69179C15.8926 3.33925 15.6356 2.74774 15.3219 2.43996C14.9902 2.11535 14.3882 1.89294 13.1564 1.80517C12.733 1.77632 12.3144 2.13459 12.3144 2.65877V3.92475C12.3144 8.19275 9.31282 10.0118 7.87478 10.6297C7.426 10.8221 6.96515 10.9086 6.53205 10.9423V20.2946ZM2.61122 22.1966H4.42083C4.50082 22.1966 4.57753 22.165 4.6341 22.1086C4.69066 22.0522 4.72243 21.9758 4.72243 21.8961V9.27238C4.72243 9.19266 4.69066 9.11621 4.6341 9.05985C4.57753 9.00348 4.50082 8.97181 4.42083 8.97181H2.61122C2.53123 8.97181 2.45451 9.00348 2.39795 9.05985C2.34139 9.11621 2.30961 9.19266 2.30961 9.27238V21.8961C2.30961 22.062 2.44473 22.1966 2.61122 22.1966Z" fill="#F8F8F8"/>
</svg>
