<svg width="48" height="48" viewBox="0 0 48 48" fill="none" xmlns="http://www.w3.org/2000/svg">
<circle cx="24" cy="24" r="24" fill="url(#paint0_linear_5010_8125)"/>
<path d="M23.0605 34.5937L23.8141 33.9365C22.4188 32.3363 20.6199 30.9074 18.9639 29.5919L18.902 29.5428L18.9016 29.5424C17.0934 28.1075 15.3614 26.7279 14.0678 25.1659C12.7935 23.6273 12 21.9752 12 20.0045C12 18.1922 12.6497 16.7076 13.7181 15.6748C14.789 14.6396 16.3419 14 18.2469 14C20.294 14 22.1545 15.4444 23.2857 16.591L23.9976 17.3127L24.7095 16.591C25.8399 15.4451 27.7054 14 29.7543 14C31.6587 14 33.2112 14.6396 34.282 15.6748C35.3503 16.7076 36 18.1922 36 20.0045C36 21.9756 35.206 23.628 33.9313 25.1667C32.6373 26.7286 30.9051 28.1079 29.0974 29.5423C29.0973 29.5423 29.0973 29.5424 29.0972 29.5424L29.078 29.5577C27.4081 30.8822 25.5926 32.3221 24.1833 33.9353C24.1504 33.9726 24.096 34 24.0331 34H23.9645C23.9005 34 23.8453 33.972 23.8125 33.9345L23.0605 34.5937ZM23.0605 34.5937C23.2862 34.8512 23.6171 35 23.9645 35H24.0331C24.3817 35 24.7115 34.8501 24.936 34.5937L23.7348 15.6295C22.5319 14.4749 20.5464 13 18.2469 13C13.9794 13 11 15.8808 11 20.0045C11 24.5482 14.7003 27.4851 18.28 30.3258L18.3045 30.3452C19.9869 31.6817 21.7256 33.0629 23.0605 34.5937Z" stroke="#F8F8F8" stroke-width="2"/>
<defs>
<linearGradient id="paint0_linear_5010_8125" x1="67.3088" y1="-8.73599" x2="8.30035" y2="18.8691" gradientUnits="userSpaceOnUse">
<stop stop-color="#FFA800"/>
<stop offset="1" stop-color="#FF2525"/>
</linearGradient>
</defs>
</svg>
