<svg width="17" height="13" viewBox="0 0 17 13" fill="none" xmlns="http://www.w3.org/2000/svg">
<path d="M15.4309 0C16.2979 0 17 0.692762 17 1.54636V3.35072C17 4.91005 16.5096 6.43104 15.5962 7.70436C14.6829 8.97768 13.3916 9.94073 11.9 10.461V11.3087C11.9 11.6419 11.7657 11.9615 11.5266 12.1972C11.2875 12.4328 10.9632 12.5652 10.625 12.5652H6.375C6.03685 12.5652 5.71255 12.4328 5.47344 12.1972C5.23433 11.9615 5.1 11.6419 5.1 11.3087V10.461C3.6084 9.94073 2.31708 8.97768 1.40376 7.70436C0.490438 6.43104 1.92124e-05 4.91005 0 3.35072V1.54636C0 0.691925 0.70295 0 1.5691 0H15.4309Z" fill="url(#paint0_linear_5010_7824)"/>
<defs>
<linearGradient id="paint0_linear_5010_7824" x1="23.8385" y1="-2.28687" x2="5.6516" y2="9.22414" gradientUnits="userSpaceOnUse">
<stop stop-color="#FFA800"/>
<stop offset="1" stop-color="#FF2525"/>
</linearGradient>
</defs>
</svg>
