<svg width="27" height="27" viewBox="0 0 27 27" fill="none" xmlns="http://www.w3.org/2000/svg">
<path d="M0.341565 0.229005C0.485606 0.106789 0.662371 0.0295732 0.849913 0.0069443C1.03745 -0.0156846 1.22751 0.0172703 1.39649 0.101717L26.4678 12.6376C26.6277 12.7178 26.7622 12.8409 26.8562 12.9931C26.9502 13.1454 27 13.3208 27 13.4997C27 13.6786 26.9502 13.854 26.8562 14.0063C26.7622 14.1585 26.6277 14.2816 26.4678 14.3618L1.39649 26.8977C1.22763 26.9824 1.03762 27.0156 0.850048 26.9932C0.662479 26.9708 0.485614 26.8939 0.341411 26.7718C0.197208 26.6498 0.0920195 26.4881 0.0389045 26.3068C-0.0142105 26.1256 -0.0129122 25.9327 0.0426383 25.7521L3.81298 13.4997L0.0426383 1.24731C-0.0125945 1.06694 -0.0137137 0.874331 0.039419 0.693333C0.0925518 0.512335 0.197603 0.350896 0.341565 0.229005ZM5.53325 14.464L2.54977 24.1649L23.8797 13.4997L2.54977 2.83455L5.53325 12.5354H16.393C16.6487 12.5354 16.894 12.637 17.0748 12.8179C17.2557 12.9987 17.3573 13.244 17.3573 13.4997C17.3573 13.7555 17.2557 14.0007 17.0748 14.1816C16.894 14.3624 16.6487 14.464 16.393 14.464H5.53325Z" fill="#FF2525"/>
</svg>
