<svg width="38" height="42" viewBox="0 0 38 42" fill="none" xmlns="http://www.w3.org/2000/svg">
<path d="M24.9488 32.6923V34.1538C24.9488 35.7043 24.3088 37.1913 23.1695 38.2877C22.0302 39.3841 20.4849 40 18.8737 40C17.2625 40 15.7173 39.3841 14.578 38.2877C13.4387 37.1913 12.7987 35.7043 12.7987 34.1538V32.6923M35.1701 29.7172C32.7325 26.8462 31.0115 25.3846 31.0115 17.4695C31.0115 10.2212 27.1653 7.6388 23.9996 6.38462C23.5791 6.21837 23.1832 5.83654 23.0551 5.42091C22.4998 3.60221 20.9431 2 18.8737 2C16.8044 2 15.2467 3.60313 14.6971 5.42274C14.569 5.84293 14.1731 6.21837 13.7526 6.38462C10.5832 7.64062 6.74067 10.2138 6.74067 17.4695C6.73592 25.3846 5.01497 26.8462 2.57735 29.7172C1.56736 30.9065 2.45205 32.6923 4.21857 32.6923H33.5384C35.2954 32.6923 36.1744 30.901 35.1701 29.7172Z" stroke="black" stroke-width="3" stroke-linecap="round" stroke-linejoin="round"/>
</svg>
