<svg width="215" height="35" viewBox="0 0 215 35" fill="none" xmlns="http://www.w3.org/2000/svg">
<path d="M194.642 23.1344L198.875 20.5219L203.108 23.1688L201.999 18.2187L205.728 14.9188L200.823 14.4719L198.875 9.79687L196.927 14.4375L192.022 14.8844L195.751 18.2187L194.642 23.1344ZM192.593 26.0191L194.259 18.7137L188.719 13.8022L196.017 13.156L198.875 6.26587L201.733 13.1546L209.03 13.8009L203.491 18.7124L205.157 26.0178L198.875 22.1402L192.593 26.0191Z" fill="#FFCF25"/>
<g clip-path="url(#clip0_5009_6398)">
<g clip-path="url(#clip1_5009_6398)">
<g clip-path="url(#clip2_5009_6398)">
<g clip-path="url(#clip3_5009_6398)">
<path d="M146.312 23.8783L147.978 16.5729L142.438 11.6614L149.735 11.0151L152.594 4.125L155.452 11.0138L162.748 11.66L157.209 16.5715L158.876 23.8769L152.594 19.9994L146.312 23.8783Z" fill="#FFCF25"/>
</g>
</g>
</g>
</g>
<g clip-path="url(#clip4_5009_6398)">
<g clip-path="url(#clip5_5009_6398)">
<g clip-path="url(#clip6_5009_6398)">
<path d="M100.624 23.8783L102.29 16.5729L96.75 11.6614L104.048 11.0151L106.906 4.125L109.764 11.0138L117.061 11.66L111.522 16.5715L113.188 23.8769L106.906 19.9994L100.624 23.8783Z" fill="#FFCF25"/>
</g>
</g>
</g>
<g clip-path="url(#clip7_5009_6398)">
<g clip-path="url(#clip8_5009_6398)">
<path d="M54.9365 23.8783L56.6028 16.5729L51.0625 11.6614L58.3604 11.0151L61.2186 4.125L64.0767 11.0138L71.3733 11.66L65.8343 16.5715L67.5006 23.8769L61.2186 19.9994L54.9365 23.8783Z" fill="#FFCF25"/>
</g>
</g>
<g clip-path="url(#clip9_5009_6398)">
<path d="M10.5928 25.2533L12.259 17.9479L6.71875 13.0364L14.0167 12.3901L16.8748 5.5L19.733 12.3888L27.0295 13.035L21.4906 17.9465L23.1568 25.2519L16.8748 21.3744L10.5928 25.2533Z" fill="#FFCF25"/>
</g>
<defs>
<clipPath id="clip0_5009_6398">
<rect width="32.25" height="33" fill="white" transform="translate(137.062)"/>
</clipPath>
<clipPath id="clip1_5009_6398">
<rect width="32.25" height="33" fill="white" transform="translate(137.062)"/>
</clipPath>
<clipPath id="clip2_5009_6398">
<rect width="32.25" height="33" fill="white" transform="translate(137.062)"/>
</clipPath>
<clipPath id="clip3_5009_6398">
<rect width="32.25" height="33" fill="white" transform="translate(142.438)"/>
</clipPath>
<clipPath id="clip4_5009_6398">
<rect width="32.25" height="33" fill="white" transform="translate(91.375)"/>
</clipPath>
<clipPath id="clip5_5009_6398">
<rect width="32.25" height="33" fill="white" transform="translate(91.375)"/>
</clipPath>
<clipPath id="clip6_5009_6398">
<rect width="32.25" height="33" fill="white" transform="translate(96.75)"/>
</clipPath>
<clipPath id="clip7_5009_6398">
<rect width="32.25" height="33" fill="white" transform="translate(45.6875)"/>
</clipPath>
<clipPath id="clip8_5009_6398">
<rect width="32.25" height="33" fill="white" transform="translate(51.0625)"/>
</clipPath>
<clipPath id="clip9_5009_6398">
<rect width="32.25" height="33" fill="white" transform="translate(6.71875 1.375)"/>
</clipPath>
</defs>
</svg>
