<svg width="30" height="30" viewBox="0 0 30 30" fill="none" xmlns="http://www.w3.org/2000/svg">
<path d="M15.0956 3.74812H15.2625C16.8037 3.75375 24.6131 3.81 26.7187 4.37625C27.3553 4.54906 27.9353 4.88592 28.4009 5.35314C28.8665 5.82036 29.2013 6.40159 29.3719 7.03875C29.5612 7.75125 29.6944 8.69437 29.7844 9.6675L29.8031 9.8625L29.8444 10.35L29.8594 10.545C29.9812 12.2587 29.9962 13.8637 29.9981 14.2144V14.355C29.9962 14.7187 29.9794 16.4325 29.8444 18.2175L29.8294 18.4144L29.8125 18.6094C29.7187 19.6819 29.58 20.7469 29.3719 21.5306C29.2013 22.1678 28.8665 22.749 28.4009 23.2162C27.9353 23.6835 27.3553 24.0203 26.7187 24.1931C24.5437 24.7781 16.2769 24.8194 15.1312 24.8212H14.865C14.2856 24.8212 11.8894 24.81 9.37687 24.7237L9.05812 24.7125L8.895 24.705L8.57437 24.6919L8.25375 24.6787C6.1725 24.5869 4.19062 24.4387 3.2775 24.1912C2.64118 24.0186 2.06128 23.682 1.59572 23.2152C1.13016 22.7483 0.795231 22.1674 0.624375 21.5306C0.41625 20.7487 0.2775 19.6819 0.18375 18.6094L0.16875 18.4125L0.15375 18.2175C0.0606814 16.947 0.00940372 15.6738 0 14.4L0 14.1694C0.00375 13.7662 0.01875 12.3731 0.12 10.8356L0.133125 10.6425L0.13875 10.545L0.15375 10.35L0.195 9.8625L0.21375 9.6675C0.30375 8.69437 0.436875 7.74937 0.62625 7.03875C0.796819 6.40159 1.13162 5.82036 1.5972 5.35314C2.06278 4.88592 2.64283 4.54906 3.27937 4.37625C4.1925 4.1325 6.17437 3.9825 8.25562 3.88875L8.57437 3.87562L8.89687 3.86437L9.05812 3.85875L9.37875 3.84562C11.1632 3.78825 12.9484 3.75638 14.7337 3.75L15.0956 3.74812ZM12 9.76687V18.8006L19.7944 14.2856L12 9.76687Z" fill="white"/>
</svg>
