<svg width="254" height="41" viewBox="0 0 254 41" fill="none" xmlns="http://www.w3.org/2000/svg">
<path d="M229.949 27.5401L234.95 24.4301L239.951 27.5811L238.641 21.6884L243.046 17.7599L237.252 17.228L234.95 11.6627L232.648 17.187L226.854 17.719L231.259 21.6884L229.949 27.5401ZM227.528 30.9743L229.497 22.2777L222.952 16.4308L231.573 15.6615L234.95 7.45923L238.327 15.6599L246.947 16.4292L240.403 22.276L242.372 30.9726L234.95 26.3567L227.528 30.9743Z" fill="#FFCF25"/>
<g clip-path="url(#clip0_5009_5873)">
<g clip-path="url(#clip1_5009_5873)">
<g clip-path="url(#clip2_5009_5873)">
<g clip-path="url(#clip3_5009_5873)">
<path d="M172.852 28.4257L174.82 19.7291L168.275 13.8822L176.897 13.1129L180.273 4.91064L183.65 13.1113L192.27 13.8806L185.726 19.7274L187.695 28.424L180.273 23.8081L172.852 28.4257Z" fill="#FFCF25"/>
</g>
</g>
</g>
</g>
<g clip-path="url(#clip4_5009_5873)">
<g clip-path="url(#clip5_5009_5873)">
<g clip-path="url(#clip6_5009_5873)">
<path d="M118.877 28.4257L120.845 19.7291L114.3 13.8822L122.922 13.1129L126.298 4.91064L129.675 13.1113L138.295 13.8806L131.751 19.7274L133.72 28.424L126.298 23.8081L118.877 28.4257Z" fill="#FFCF25"/>
</g>
</g>
</g>
<g clip-path="url(#clip7_5009_5873)">
<g clip-path="url(#clip8_5009_5873)">
<path d="M64.9018 28.4257L66.8703 19.7291L60.325 13.8822L68.9467 13.1129L72.3233 4.91064L75.6999 13.1113L84.3201 13.8806L77.7764 19.7274L79.7449 28.424L72.3233 23.8081L64.9018 28.4257Z" fill="#FFCF25"/>
</g>
</g>
<g clip-path="url(#clip9_5009_5873)">
<path d="M12.5143 30.0626L14.4828 21.366L7.9375 15.5192L16.5592 14.7499L19.9358 6.54761L23.3124 14.7482L31.9326 15.5176L25.3889 21.3644L27.3574 30.061L19.9358 25.4451L12.5143 30.0626Z" fill="#FFCF25"/>
</g>
<defs>
<clipPath id="clip0_5009_5873">
<rect width="38.1" height="39.2845" fill="white" transform="translate(161.925)"/>
</clipPath>
<clipPath id="clip1_5009_5873">
<rect width="38.1" height="39.2845" fill="white" transform="translate(161.925)"/>
</clipPath>
<clipPath id="clip2_5009_5873">
<rect width="38.1" height="39.2845" fill="white" transform="translate(161.925)"/>
</clipPath>
<clipPath id="clip3_5009_5873">
<rect width="38.1" height="39.2845" fill="white" transform="translate(168.275)"/>
</clipPath>
<clipPath id="clip4_5009_5873">
<rect width="38.1" height="39.2845" fill="white" transform="translate(107.95)"/>
</clipPath>
<clipPath id="clip5_5009_5873">
<rect width="38.1" height="39.2845" fill="white" transform="translate(107.95)"/>
</clipPath>
<clipPath id="clip6_5009_5873">
<rect width="38.1" height="39.2845" fill="white" transform="translate(114.3)"/>
</clipPath>
<clipPath id="clip7_5009_5873">
<rect width="38.1" height="39.2845" fill="white" transform="translate(53.975)"/>
</clipPath>
<clipPath id="clip8_5009_5873">
<rect width="38.1" height="39.2845" fill="white" transform="translate(60.325)"/>
</clipPath>
<clipPath id="clip9_5009_5873">
<rect width="38.1" height="39.2845" fill="white" transform="translate(7.9375 1.63696)"/>
</clipPath>
</defs>
</svg>
