<svg width="33" height="40" viewBox="0 0 33 40" fill="none" xmlns="http://www.w3.org/2000/svg">
<path d="M25 6.84291C25 6.62197 24.9042 6.41008 24.7337 6.25385C24.5632 6.09762 24.332 6.00985 24.0909 6.00985H19.5455C17.2566 5.90537 15.0156 6.6353 13.3122 8.04015C11.6088 9.445 10.5814 11.4106 10.4545 13.5074V18.0059H5.90909C5.66799 18.0059 5.43675 18.0937 5.26627 18.2499C5.09578 18.4061 5 18.618 5 18.839V23.1709C5 23.3918 5.09578 23.6037 5.26627 23.7599C5.43675 23.9162 5.66799 24.0039 5.90909 24.0039H10.4545V35.1669C10.4545 35.3879 10.5503 35.5998 10.7208 35.756C10.8913 35.9122 11.1225 36 11.3636 36H16.8182C17.0593 36 17.2905 35.9122 17.461 35.756C17.6315 35.5998 17.7273 35.3879 17.7273 35.1669V24.0039H22.4909C22.6931 24.0066 22.8904 23.9474 23.0518 23.8358C23.2131 23.7241 23.3293 23.5664 23.3818 23.3875L24.6909 19.0556C24.7271 18.9325 24.7319 18.8034 24.7051 18.6783C24.6783 18.5533 24.6205 18.4355 24.5362 18.3341C24.4519 18.2327 24.3433 18.1504 24.2188 18.0935C24.0944 18.0366 23.9573 18.0066 23.8182 18.0059H17.7273V13.5074C17.7725 13.095 17.9838 12.7128 18.32 12.4356C18.6562 12.1583 19.0932 12.0058 19.5455 12.0079H24.0909C24.332 12.0079 24.5632 11.9201 24.7337 11.7639C24.9042 11.6077 25 11.3958 25 11.1748V6.84291Z" fill="white"/>
</svg>
