<svg width="43" height="42" viewBox="0 0 43 42" fill="none" xmlns="http://www.w3.org/2000/svg">
<path fill-rule="evenodd" clip-rule="evenodd" d="M29.1875 15.2727C29.1875 17.298 28.3722 19.2404 26.921 20.6725C25.4697 22.1045 23.5014 22.9091 21.449 22.9091C19.3967 22.9091 17.4284 22.1045 15.9771 20.6725C14.5259 19.2404 13.7106 17.298 13.7106 15.2727C13.7106 13.2474 14.5259 11.3051 15.9771 9.873C17.4284 8.44091 19.3967 7.63636 21.449 7.63636C23.5014 7.63636 25.4697 8.44091 26.921 9.873C28.3722 11.3051 29.1875 13.2474 29.1875 15.2727ZM25.3183 15.2727C25.3183 16.2854 24.9106 17.2565 24.185 17.9726C23.4594 18.6886 22.4752 19.0909 21.449 19.0909C20.4229 19.0909 19.4387 18.6886 18.7131 17.9726C17.9875 17.2565 17.5798 16.2854 17.5798 15.2727C17.5798 14.2601 17.9875 13.2889 18.7131 12.5729C19.4387 11.8568 20.4229 11.4545 21.449 11.4545C22.4752 11.4545 23.4594 11.8568 24.185 12.5729C24.9106 13.2889 25.3183 14.2601 25.3183 15.2727Z" fill="black"/>
<path fill-rule="evenodd" clip-rule="evenodd" d="M21.449 0C9.6962 0 0.168213 9.40227 0.168213 21C0.168213 32.5977 9.6962 42 21.449 42C33.2018 42 42.7298 32.5977 42.7298 21C42.7298 9.40227 33.2018 0 21.449 0ZM4.03745 21C4.03745 24.99 5.41683 28.6631 7.7287 31.5802C9.35229 29.4762 11.4468 27.7711 13.8487 26.598C16.2506 25.425 18.8948 24.8159 21.5748 24.8182C24.22 24.8157 26.8309 25.4091 29.2086 26.5531C31.5863 27.6972 33.668 29.3617 35.2951 31.4198C36.9713 29.2503 38.0999 26.7181 38.5876 24.0328C39.0752 21.3474 38.9078 18.586 38.0993 15.9772C37.2907 13.3683 35.8643 10.9869 33.9379 9.03007C32.0115 7.07323 29.6407 5.59719 27.0214 4.72406C24.4022 3.85094 21.61 3.60584 18.8757 4.00904C16.1414 4.41224 13.5438 5.45216 11.2976 7.04274C9.05149 8.63332 7.22146 10.7288 5.95897 13.1559C4.69647 15.583 4.0378 18.2718 4.03745 21ZM21.449 38.1818C17.452 38.1877 13.5756 36.8308 10.4759 34.3407C11.7235 32.5781 13.3842 31.139 15.3166 30.1459C17.249 29.1527 19.396 28.6348 21.5748 28.6364C23.7264 28.6347 25.8473 29.1395 27.7615 30.1091C29.6757 31.0786 31.3279 32.4848 32.5808 34.2109C29.457 36.7819 25.5167 38.1874 21.449 38.1818Z" fill="black"/>
</svg>
