<svg width="22" height="21" viewBox="0 0 22 21" fill="none" xmlns="http://www.w3.org/2000/svg">
<path d="M20.0002 19.5001L15.6572 15.1571M15.6572 15.1571C16.4001 14.4142 16.9894 13.5323 17.3914 12.5616C17.7935 11.591 18.0004 10.5507 18.0004 9.5001C18.0004 8.4495 17.7935 7.40919 17.3914 6.43856C16.9894 5.46793 16.4001 4.58599 15.6572 3.8431C14.9143 3.10022 14.0324 2.51092 13.0618 2.10888C12.0911 1.70683 11.0508 1.4999 10.0002 1.4999C8.9496 1.4999 7.90929 1.70683 6.93866 2.10888C5.96803 2.51092 5.08609 3.10022 4.34321 3.8431C2.84288 5.34343 2 7.37832 2 9.5001C2 11.6219 2.84288 13.6568 4.34321 15.1571C5.84354 16.6574 7.87842 17.5003 10.0002 17.5003C12.122 17.5003 14.1569 16.6574 15.6572 15.1571Z" stroke="url(#paint0_linear_5011_5949)" stroke-width="2.5" stroke-linecap="round" stroke-linejoin="round"/>
<defs>
<linearGradient id="paint0_linear_5011_5949" x1="27.2411" y1="-1.77614" x2="5.11267" y2="8.57589" gradientUnits="userSpaceOnUse">
<stop stop-color="#FFA800"/>
<stop offset="1" stop-color="#FF2525"/>
</linearGradient>
</defs>
</svg>
